<?xml version="1.0" encoding="utf-8"?>
<!-- Generator: Adobe Illustrator 14.0.0, SVG Export Plug-In . SVG Version: 6.00 Build 43363)  -->
<!DOCTYPE svg PUBLIC "-//W3C//DTD SVG 1.1//EN" "http://www.w3.org/Graphics/SVG/1.1/DTD/svg11.dtd">
<svg version="1.1" id="Layer_1" xmlns="http://www.w3.org/2000/svg" xmlns:xlink="http://www.w3.org/1999/xlink" x="0px" y="0px"
	 width="74px" height="75px" viewBox="0 0 74 75" enable-background="new 0 0 74 75" xml:space="preserve">
<rect x="20.689" y="21.557" opacity="0.08" fill="#FFFFFF" enable-background="new    " width="32.465" height="32.464"/>
<g opacity="0.6">
	<path d="M44.246,45.336c0.248,0,0.496-0.095,0.686-0.286c0.379-0.38,0.379-0.993,0-1.373l-7.24-7.238
		c-0.091-0.093-0.2-0.165-0.317-0.213c-0.24-0.096-0.505-0.096-0.744,0c-0.118,0.048-0.225,0.122-0.317,0.213l-7.242,7.238
		c-0.379,0.38-0.379,0.993,0,1.373c0.19,0.191,0.438,0.286,0.687,0.286c0.248,0,0.497-0.095,0.686-0.286l5.587-5.584v16.675
		c0,0.536,0.434,0.971,0.97,0.971c0.536,0,0.97-0.435,0.97-0.971V39.466l5.586,5.584C43.749,45.241,43.997,45.336,44.246,45.336z"/>
	<path d="M55.02,22.098c-0.259-0.771-0.893-1.349-1.733-1.549c-0.508-0.11-3.684-0.66-16.282-0.66
		c-12.392,0-15.711,0.544-16.316,0.668c-0.764,0.182-1.389,0.727-1.646,1.396C18.717,22.733,18,27.493,18,38.189
		c0,11.221,0.655,15.796,1.048,16.748c0.284,0.674,0.852,1.171,1.56,1.366c0.387,0.106,2.628,0.583,11.917,0.701
		c0.002,0,0.002,0,0.004,0c0.522-0.004,0.947-0.489,0.947-1.013v-1.919c0-0.523-0.425-0.948-0.947-0.952
		c-5.883-0.074-8.738-0.295-10.003-0.435c-0.237-1.635-0.642-5.717-0.642-14.497c0-8.33,0.427-12.164,0.667-13.974
		c1.667-0.173,5.701-0.442,14.453-0.442c8.818,0,12.825,0.272,14.451,0.438c0.24,1.795,0.661,5.535,0.661,13.422
		c0,8.941-0.416,13.292-0.651,15.053c-1.301,0.146-4.163,0.36-9.992,0.435c-0.525,0-0.952,0.427-0.952,0.952v1.919
		c0,0.524,0.428,1.013,0.952,1.013c9.146-0.119,11.49-0.59,11.931-0.701c0.712-0.196,1.301-0.722,1.577-1.409
		C55.245,54.228,56,49.625,56,37.634C56,27.306,55.263,22.723,55.02,22.098z"/>
</g>
<g>
	<path fill="#C0BEBE" d="M44.246,43.336c0.248,0,0.496-0.096,0.686-0.284c0.379-0.379,0.379-0.993,0-1.374l-7.24-7.239
		c-0.091-0.092-0.2-0.163-0.317-0.212c-0.24-0.097-0.505-0.097-0.744,0c-0.118,0.049-0.225,0.12-0.317,0.212l-7.242,7.239
		c-0.379,0.381-0.379,0.995,0,1.374c0.19,0.188,0.438,0.284,0.687,0.284c0.248,0,0.497-0.096,0.686-0.284l5.587-5.585v16.674
		c0,0.537,0.434,0.97,0.97,0.97c0.536,0,0.97-0.433,0.97-0.97V37.467l5.586,5.585C43.749,43.24,43.997,43.336,44.246,43.336z"/>
	<path fill="#C0BEBE" d="M55.02,20.099c-0.259-0.771-0.893-1.347-1.733-1.549c-0.508-0.111-3.684-0.66-16.282-0.66
		c-12.392,0-15.711,0.544-16.316,0.667c-0.764,0.184-1.389,0.728-1.646,1.398C18.717,20.735,18,25.494,18,36.189
		c0,11.222,0.655,15.796,1.048,16.746c0.284,0.675,0.852,1.174,1.56,1.368c0.387,0.106,2.628,0.584,11.917,0.701
		c0.002,0,0.002,0,0.004,0c0.522-0.004,0.947-0.489,0.947-1.013v-1.919c0-0.522-0.425-0.947-0.947-0.951
		c-5.883-0.076-8.738-0.296-10.003-0.437c-0.237-1.634-0.642-5.715-0.642-14.496c0-8.33,0.427-12.164,0.667-13.975
		c1.667-0.171,5.701-0.441,14.453-0.441c8.818,0,12.825,0.273,14.451,0.438c0.24,1.795,0.661,5.537,0.661,13.423
		c0,8.94-0.416,13.292-0.651,15.051c-1.301,0.146-4.163,0.36-9.992,0.437c-0.525,0-0.952,0.427-0.952,0.951v1.918
		c0,0.525,0.428,1.014,0.952,1.014c9.146-0.119,11.49-0.59,11.931-0.701c0.712-0.195,1.301-0.721,1.577-1.409
		C55.245,52.228,56,47.624,56,35.635C56,25.306,55.263,20.723,55.02,20.099z"/>
</g>
<path fill="#444444" d="M18,37.788"/>
</svg>
